<svg xmlns="http://www.w3.org/2000/svg" viewBox="0 0 256 256" height="256" fill="none" width="256"><defs><linearGradient id="b" y1="121.25" y2="29.5351" x1="150.391" x2="186.422" gradientUnits="userSpaceOnUse"><stop offset=".04937" stop-color="rgb(125,125,125)" /><stop stop-color="rgb(130,130,130)" offset=".27923" /><stop offset=".75337" stop-color="rgb(143,143,143)" /><stop offset="1" stop-color="rgb(144,144,144)" /></linearGradient><linearGradient id="c" y2="141.548" gradientUnits="userSpaceOnUse" x2="156.681" x1="180.776" y1="22.6351"><stop stop-color="rgb(146,146,146)" /><stop offset=".1634" stop-color="rgb(135,135,135)" /><stop stop-color="rgb(124,124,124)" offset=".50492" /><stop offset=".98215" stop-color="rgb(135,135,135)" /></linearGradient><linearGradient x1="111.63" gradientUnits="userSpaceOnUse" id="d" x2="192.377" y1="110.031" y2="-.587834"><stop offset=".38956" stop-color="rgb(146,146,146)" /><stop offset=".63623" stop-color="rgb(135,135,135)" /><stop offset=".92822" stop-color="rgb(124,124,124)" /></linearGradient><linearGradient gradientUnits="userSpaceOnUse" x1="210.286" x2="89.7813" id="e" y1="67.5929" y2="240.781"><stop offset=".24437" stop-color="rgb(135,135,135)" /><stop offset=".89126" stop-color="rgb(145,145,145)" /></linearGradient><linearGradient y1="56.0917" x1="248.955" x2="121.838" id="f" y2="238.783" gradientUnits="userSpaceOnUse"><stop stop-color="rgb(135,135,135)" /><stop stop-color="rgb(145,145,145)" offset="1" /></linearGradient><linearGradient y1="168.501" gradientUnits="userSpaceOnUse" y2="132.475" x2="205.645" id="g" x1="204.242"><stop stop-color="rgb(115,115,115)" offset=".06498" /><stop stop-opacity="0" stop-color="rgb(118,118,118)" offset=".89819" /></linearGradient><linearGradient y2="231.951" gradientUnits="userSpaceOnUse" id="h" x1="178.995" y1="134.223" x2="52.2034"><stop stop-color="rgb(130,130,130)" /><stop offset=".73314" stop-color="rgb(145,145,145)" /></linearGradient><linearGradient y2="210.228" x1="122.04" x2="63.7677" y1="25.8068" gradientUnits="userSpaceOnUse" id="i"><stop stop-color="rgb(122,122,122)" /><stop stop-color="rgb(145,145,145)" offset="1" /></linearGradient><linearGradient y1="14.918" x2="72.0454" gradientUnits="userSpaceOnUse" x1="183.265" y2="233.152" id="j"><stop offset=".1207" stop-color="rgb(134,134,134)" /><stop stop-color="rgb(145,145,145)" offset=".25438" /><stop offset=".53455" stop-color="rgb(122,122,122)" /><stop offset=".91392" stop-color="rgb(145,145,145)" /></linearGradient><linearGradient y2="19.8832" x1="57.4924" x2="129.085" id="k" y1="53.355" gradientUnits="userSpaceOnUse"><stop offset=".21599" stop-color="rgb(109,109,109)" /><stop stop-color="rgb(122,122,122)" stop-opacity="0" offset=".88355" /></linearGradient><linearGradient y2="34.438" y1="75.2461" x2="141.792" id="l" gradientUnits="userSpaceOnUse" x1="159.24"><stop offset=".45951" stop-color="rgb(122,122,122)" /><stop stop-color="rgb(145,145,145)" offset=".85318" /><stop stop-color="rgb(163,163,163)" offset="1" /></linearGradient><linearGradient id="m" x1="163.949" x2="30.3065" gradientUnits="userSpaceOnUse" y2="211.025" y1="35.4559"><stop offset=".27215" stop-color="rgb(122,122,122)" /><stop stop-color="rgb(145,145,145)" offset="1" /></linearGradient><linearGradient id="n" y1="220.528" gradientUnits="userSpaceOnUse" y2="130.039" x2="71.0094" x1="151.652"><stop stop-color="rgb(153,153,153)" offset=".3899" /><stop stop-color="rgb(145,145,145)" stop-opacity="0" offset=".97479" /></linearGradient><linearGradient x2="15.5264" x1="94.8489" gradientUnits="userSpaceOnUse" y2="123.588" id="o" y1="154.688"><stop stop-color="rgb(145,145,145)" stop-opacity="0" offset=".34967" /><stop offset=".98508" stop-color="rgb(163,163,163)" /></linearGradient><linearGradient x1="91.0987" x2="51.9804" y2="147.717" gradientUnits="userSpaceOnUse" id="p" y1="23.914"><stop stop-color="rgb(137,137,137)" offset=".02988" /><stop offset=".1294" stop-color="rgb(122,122,122)" /><stop stop-color="rgb(145,145,145)" offset="1" /></linearGradient><linearGradient id="q" gradientUnits="userSpaceOnUse" y2="112.851" y1="157.558" x1="116.634" x2="171.82"><stop offset=".06498" stop-color="rgb(115,115,115)" /><stop offset=".89819" stop-color="rgb(118,118,118)" stop-opacity="0" /></linearGradient><linearGradient x2="189.419" y1="53.6427" x1="53.6427" y2="189.419" gradientUnits="userSpaceOnUse" id="r"><stop stop-color="rgb(105,105,105)" offset=".028481" /><stop stop-color="rgb(102,102,102)" offset=".079756" /><stop stop-color="rgb(95,95,95)" offset=".2774" /><stop offset=".3795" stop-color="rgb(93,93,93)" /><stop stop-color="rgb(93,93,93)" offset=".3907" /><stop stop-color="rgb(90,90,90)" offset=".6833" /><stop offset=".9138" /></linearGradient><linearGradient y2="49.5895" x1="128.37" gradientUnits="userSpaceOnUse" x2="162.252" y1="144.304" id="t"><stop offset=".04937" stop-color="rgb(125,125,125)" stop-opacity="0" /><stop stop-color="rgb(143,143,143)" offset=".82237" /><stop offset="1" stop-color="rgb(144,144,144)" /></linearGradient><linearGradient x2="282.762" id="u" y1="211.683" gradientUnits="userSpaceOnUse" y2="44.5847" x1="153.011"><stop stop-color="rgb(135,135,135)" stop-opacity="0" /><stop offset="1" stop-color="rgb(145,145,145)" /></linearGradient><linearGradient x2="127.612" id="v" y1="23.4083" x1="59.8372" y2="147.138" gradientUnits="userSpaceOnUse"><stop stop-color="rgb(122,122,122)" /><stop offset="1" stop-opacity="0" stop-color="rgb(145,145,145)" /></linearGradient><clipPath id="a"><path fill="rgb(166,166,166)" d="M12 12h232v232H12z" /></clipPath><clipPath id="s"><path fill="rgb(166,166,166)" d="M56 56h144v144H56z" /></clipPath></defs><g clip-path="url(#a)"><path fill="url(#b)" d="m172.083 12 66.552 47.6095-68.364 89.2755-65.156-75.3646L172.083 12Z" /><path d="m172.083 12 66.552 47.6095L152.5 99.4758l-47.385-25.9554L172.083 12Z" fill="url(#c)" /><path fill="url(#d)" d="M172.083 12 152.5 99.4758l-47.385-25.9554L172.083 12Z" /><path fill="url(#e)" d="m244 154.583-91.024-55.7871L37.8198 180.017l27.2158 52.357L244 154.583Z" /><path d="m244 154.582-52.884-32.177-63.273 16.378L65.79 244 244 154.582Z" fill="url(#f)" /><path d="M190.408 122.589 244 154.582l-78.473 1.048 24.881-33.041Z" fill="url(#g)" /><path fill="url(#h)" d="m139.174 135.348-48.55 96.558 74.904-76.276-26.354-20.282Z" /><path fill="url(#i)" d="M62.1225 13.6514 184.78 43.982 65.79 244 12 157.327 62.1225 13.6514Z" /><path fill="url(#j)" d="m184.78 43.9824-51.82 34.4361L65.7334 242.232l2.3785-2.134 22.5118-8.192L184.78 43.9824Z" /><path fill="url(#k)" d="m62.1226 13.6514 85.2134 21.0999-31.897 29.0508-53.3164-50.1507Z" /><path fill="url(#l)" d="M184.78 43.9819 147.283 34.71l.053.0409-31.897 29.0505 15.66 15.5525 53.681-35.372Z" /><path d="M65.7335 242.231 12 157.327l103.44-93.5252 15.66 15.5524L65.7335 242.231Z" fill="url(#m)" /><path fill="url(#n)" d="M65.7335 242.231 12 157.327l103.44-93.5252 15.66 15.5524L65.7335 242.231Z" /><path fill="url(#o)" d="M65.7335 242.231 12 157.327l103.44-93.5252 15.66 15.5524L65.7335 242.231Z" /><path d="M62.1225 13.6514 12 157.326l103.439-93.5246-53.3165-50.15Z" fill="url(#p)" /><path d="m139.294 135.191 51.558-13.182-34.44-21.253-17.118 34.435Z" fill="url(#q)" /></g><path fill="url(#r)" d="M200 56H56v144h144V56Z" /><g opacity=".3" clip-path="url(#s)"><path d="M200 56h-74.073l-58.3582 77.824L169.98 149.819 200 110.615V56Z" opacity=".5" fill="url(#t)" /><path d="M154.465 200 200 177.152v-47.96l-9.32-5.671-62.836 16.266L92.332 200h62.133Z" fill="url(#u)" /><path fill="url(#v)" d="M178.225 56H56v144h36.5599L178.225 56Z" /></g><path fill="rgb(166,166,166)" d="M127.9 172.9H73.7998v9H127.9v-9Z" /><path fill="rgb(166,166,166)" d="M74 73.4004h25.4406c6.9754 0 12.5154 2.0517 16.2084 5.5395 3.077 3.0775 4.719 7.386 4.719 12.7203v.2051c0 9.0277-4.924 14.5667-11.9 17.2337L122.009 129h-14.362l-11.8994-17.849h-9.6428V129H74V73.4004Zm24.6199 27.0816c5.9501 0 9.4381-3.0772 9.4381-7.796v-.2052c0-5.3343-3.693-8.0014-9.6432-8.0014H86.31v16.0026h12.3099Z" /><path d="M130 73.4004h25.441c6.975 0 12.515 2.0517 16.208 5.5395 3.077 3.0775 4.719 7.386 4.719 12.7203v.2051c0 9.0277-4.924 14.5667-11.9 17.2337L178.009 129h-14.362l-11.899-17.849h-9.643V129H130V73.4004Zm24.62 27.0816c5.95 0 9.438-3.0772 9.438-7.796v-.2052c0-5.3343-3.693-8.0014-9.643-8.0014H142.31v16.0026h12.31Z" fill="rgb(166,166,166)" /></svg>