<svg xmlns="http://www.w3.org/2000/svg" viewBox="0 0 256 256" preserveAspectRatio="xMidYMid" width="256px" height="256px" version="1.1" fill="rgb(90,90,90)"><title>RubyMine</title><defs><linearGradient x1="55.2713581%" x2="39.5092184%" y2="35.4035019%" y1="73.8248625%" id="rubymineLinearGradient-1"><stop offset="0%" stop-color="rgb(122,122,122)" /><stop offset="6%" stop-color="rgb(124,124,124)" /><stop offset="33%" stop-color="rgb(129,129,129)" /><stop offset="58%" stop-color="rgb(133,133,133)" /><stop stop-color="rgb(135,135,135)" offset="81%" /><stop offset="100%" stop-color="rgb(136,136,136)" /></linearGradient><linearGradient y1="2.91715286%" id="rubymineLinearGradient-2" x1="19.0472854%" x2="50.1410335%" y2="36.3282769%"><stop stop-color="rgb(123,123,123)" offset="0%" /><stop stop-color="rgb(122,122,122)" offset="100%" /></linearGradient><linearGradient id="rubymineLinearGradient-3" x2="73.276839%" y1="7.99954354%" x1="9.77490556%" y2="97.5122675%"><stop offset="0%" stop-color="rgb(123,123,123)" /><stop stop-color="rgb(122,122,122)" offset="30%" /><stop stop-color="rgb(122,122,122)" offset="63%" /><stop stop-color="rgb(124,124,124)" offset="64%" /><stop stop-color="rgb(129,129,129)" offset="70%" /><stop stop-color="rgb(133,133,133)" offset="76%" /><stop offset="81%" stop-color="rgb(135,135,135)" /><stop stop-color="rgb(136,136,136)" offset="85%" /></linearGradient></defs><g><polygon fill="url(#rubymineLinearGradient-1)" points="212.906667 0 139.653333 26.24 81.92 0 62.9066667 47.8933333 50.6133333 47.8933333 50.6133333 189.28 228.4 190.826667 256 50.0266667" /><polygon points="210.72 91.8666667 93.7333333 22.5333333 210.72 159.653333" fill="url(#rubymineLinearGradient-2)" /><polygon points="106.56 249.333333 202.24 236.586667 187.386667 208.026667 210.72 208.026667 210.72 159.653333 93.7066667 22.32 0 45.3333333 0.106666667 179.733333 53.9733333 256 106.266667 249.36 106.506667 249.333333" fill="url(#rubymineLinearGradient-3)" /><polygon fill="rgb(90,90,90)" points="50.6666667 48 210.666667 48 210.666667 208 50.6666667 208" /><path fill="rgb(166,166,166)" d="M70.6133333,177.76 L130.613333,177.76 L130.613333,187.76 L70.6133333,187.76 L70.6133333,177.76 Z M129.893333,67.92 L144.16,67.92 L159.973333,93.36 L175.786667,67.92 L190.053333,67.92 L190.053333,128.053333 L176.906667,128.053333 L176.906667,88.8 L159.973333,114.48 L159.626667,114.48 L142.88,89.0666667 L142.88,128.053333 L129.893333,128.053333 L129.893333,67.92 Z M70.6666667,68 L98.1333333,68 C105.742222,68 111.573333,70.0266667 115.626667,74.08 C119.144024,77.7638962 121.003275,82.7251093 120.773333,87.8133333 L120.773333,88 C120.968362,92.2470667 119.707738,96.4334667 117.2,99.8666667 C114.799226,102.951458 111.571829,105.291091 107.893333,106.613333 L122.586667,127.946667 L107.12,127.946667 L94.6666667,109.52 L83.76,109.52 L83.76,127.973333 L70.6666667,127.973333 L70.6666667,68 Z M97.3333333,97.0933333 C100.009033,97.2118428 102.635872,96.3488741 104.72,94.6666667 C106.476199,93.0974936 107.451752,90.8342094 107.386667,88.48 L107.386667,88.32 C107.588178,85.872776 106.5949,83.4789761 104.72,81.8933333 C102.493089,80.3360099 99.806141,79.575021 97.0933333,79.7333333 L83.8133333,79.7333333 L83.8133333,96.9866667 L97.3333333,97.0933333 Z" /></g></svg>